<svg width="113" height="37" viewBox="0 0 113 37" fill="none" xmlns="http://www.w3.org/2000/svg">
<path d="M7.952 9.872H3.504L2.768 12H0.416L4.432 0.815999H7.04L11.056 12H8.688L7.952 9.872ZM7.344 8.08L5.728 3.408L4.112 8.08H7.344ZM14.7971 0.16V12H12.5571V0.16H14.7971ZM20.4823 2.992C21.1436 2.992 21.7249 3.12533 22.2263 3.392C22.7276 3.648 23.1223 3.984 23.4103 4.4V3.136H25.6663V12.064C25.6663 12.8853 25.5009 13.616 25.1703 14.256C24.8396 14.9067 24.3436 15.4187 23.6823 15.792C23.0209 16.176 22.2209 16.368 21.2823 16.368C20.0236 16.368 18.9889 16.0747 18.1783 15.488C17.3783 14.9013 16.9249 14.1013 16.8183 13.088H19.0423C19.1596 13.4933 19.4103 13.8133 19.7943 14.048C20.1889 14.2933 20.6636 14.416 21.2183 14.416C21.8689 14.416 22.3969 14.2187 22.8023 13.824C23.2076 13.44 23.4103 12.8533 23.4103 12.064V10.688C23.1223 11.104 22.7223 11.4507 22.2103 11.728C21.7089 12.0053 21.1329 12.144 20.4823 12.144C19.7356 12.144 19.0529 11.952 18.4343 11.568C17.8156 11.184 17.3249 10.6453 16.9622 9.952C16.6102 9.248 16.4342 8.44267 16.4342 7.536C16.4342 6.64 16.6102 5.84533 16.9622 5.152C17.3249 4.45867 17.8103 3.92533 18.4183 3.552C19.0369 3.17867 19.7249 2.992 20.4823 2.992ZM23.4103 7.568C23.4103 7.024 23.3036 6.56 23.0903 6.176C22.8769 5.78133 22.5889 5.48267 22.2263 5.28C21.8636 5.06667 21.4743 4.96 21.0583 4.96C20.6423 4.96 20.2583 5.06133 19.9062 5.264C19.5543 5.46667 19.2663 5.76533 19.0423 6.16C18.8289 6.544 18.7223 7.00267 18.7223 7.536C18.7223 8.06933 18.8289 8.53867 19.0423 8.944C19.2663 9.33867 19.5543 9.64267 19.9062 9.856C20.2689 10.0693 20.6529 10.176 21.0583 10.176C21.4743 10.176 21.8636 10.0747 22.2263 9.872C22.5889 9.65867 22.8769 9.36 23.0903 8.976C23.3036 8.58133 23.4103 8.112 23.4103 7.568ZM36.222 3.136V12H33.966V10.88C33.678 11.264 33.2993 11.568 32.83 11.792C32.3713 12.0053 31.87 12.112 31.326 12.112C30.6327 12.112 30.0193 11.968 29.486 11.68C28.9527 11.3813 28.5313 10.9493 28.222 10.384C27.9233 9.808 27.774 9.12533 27.774 8.336V3.136H30.014V8.016C30.014 8.72 30.19 9.264 30.542 9.648C30.894 10.0213 31.374 10.208 31.982 10.208C32.6007 10.208 33.086 10.0213 33.438 9.648C33.79 9.264 33.966 8.72 33.966 8.016V3.136H36.222ZM43.3441 3.008C44.4001 3.008 45.2535 3.344 45.9041 4.016C46.5548 4.67733 46.8801 5.60533 46.8801 6.8V12H44.6401V7.104C44.6401 6.4 44.4641 5.86133 44.1121 5.488C43.7601 5.104 43.2801 4.912 42.6721 4.912C42.0535 4.912 41.5628 5.104 41.2001 5.488C40.8481 5.86133 40.6721 6.4 40.6721 7.104V12H38.4321V3.136H40.6721V4.24C40.9708 3.856 41.3495 3.55733 41.8081 3.344C42.2775 3.12 42.7895 3.008 43.3441 3.008ZM52.4023 12.144C51.6769 12.144 51.0263 12.016 50.4503 11.76C49.8743 11.4933 49.4156 11.136 49.0743 10.688C48.7436 10.24 48.5623 9.744 48.5303 9.2H50.7863C50.8289 9.54133 50.9943 9.824 51.2823 10.048C51.5809 10.272 51.9489 10.384 52.3863 10.384C52.8129 10.384 53.1436 10.2987 53.3783 10.128C53.6236 9.95733 53.7463 9.73867 53.7463 9.472C53.7463 9.184 53.5969 8.97067 53.2983 8.832C53.0103 8.68267 52.5463 8.52267 51.9062 8.352C51.2449 8.192 50.7009 8.02667 50.2743 7.856C49.8583 7.68533 49.4956 7.424 49.1863 7.072C48.8876 6.72 48.7383 6.24533 48.7383 5.648C48.7383 5.15733 48.8769 4.70933 49.1543 4.304C49.4423 3.89867 49.8476 3.57867 50.3703 3.344C50.9036 3.10933 51.5276 2.992 52.2423 2.992C53.2983 2.992 54.1409 3.25867 54.7703 3.792C55.3996 4.31467 55.7463 5.024 55.8103 5.92H53.6663C53.6343 5.568 53.4849 5.29067 53.2183 5.088C52.9623 4.87467 52.6156 4.768 52.1783 4.768C51.7729 4.768 51.4583 4.84267 51.2343 4.992C51.0209 5.14133 50.9143 5.34933 50.9143 5.616C50.9143 5.91467 51.0636 6.144 51.3623 6.304C51.6609 6.45333 52.1249 6.608 52.7543 6.768C53.3943 6.928 53.9223 7.09333 54.3383 7.264C54.7543 7.43467 55.1116 7.70133 55.4103 8.064C55.7196 8.416 55.8796 8.88533 55.8903 9.472C55.8903 9.984 55.7463 10.4427 55.4583 10.848C55.1809 11.2533 54.7756 11.5733 54.2423 11.808C53.7196 12.032 53.1063 12.144 52.4023 12.144ZM60.9655 7.536C60.9655 6.64 61.1415 5.84533 61.4935 5.152C61.8562 4.45867 62.3468 3.92533 62.9655 3.552C63.5842 3.17867 64.2722 2.992 65.0295 2.992C65.6055 2.992 66.1548 3.12 66.6775 3.376C67.2002 3.62133 67.6162 3.952 67.9255 4.368V0.16H70.1975V12H67.9255V10.688C67.6482 11.1253 67.2588 11.4773 66.7575 11.744C66.2562 12.0107 65.6748 12.144 65.0135 12.144C64.2668 12.144 63.5842 11.952 62.9655 11.568C62.3468 11.184 61.8562 10.6453 61.4935 9.952C61.1415 9.248 60.9655 8.44267 60.9655 7.536ZM67.9415 7.568C67.9415 7.024 67.8348 6.56 67.6215 6.176C67.4082 5.78133 67.1202 5.48267 66.7575 5.28C66.3948 5.06667 66.0055 4.96 65.5895 4.96C65.1735 4.96 64.7895 5.06133 64.4375 5.264C64.0855 5.46667 63.7975 5.76533 63.5735 6.16C63.3602 6.544 63.2535 7.00267 63.2535 7.536C63.2535 8.06933 63.3602 8.53867 63.5735 8.944C63.7975 9.33867 64.0855 9.64267 64.4375 9.856C64.8002 10.0693 65.1842 10.176 65.5895 10.176C66.0055 10.176 66.3948 10.0747 66.7575 9.872C67.1202 9.65867 67.4082 9.36 67.6215 8.976C67.8348 8.58133 67.9415 8.112 67.9415 7.568ZM76.3213 12.144C75.4679 12.144 74.6999 11.9573 74.0173 11.584C73.3346 11.2 72.7959 10.6613 72.4013 9.968C72.0173 9.27467 71.8253 8.47467 71.8253 7.568C71.8253 6.66133 72.0226 5.86133 72.4173 5.168C72.8226 4.47467 73.3719 3.94133 74.0653 3.568C74.7586 3.184 75.5319 2.992 76.3853 2.992C77.2386 2.992 78.0119 3.184 78.7053 3.568C79.3986 3.94133 79.9426 4.47467 80.3373 5.168C80.7426 5.86133 80.9453 6.66133 80.9453 7.568C80.9453 8.47467 80.7373 9.27467 80.3212 9.968C79.9159 10.6613 79.3613 11.2 78.6573 11.584C77.9639 11.9573 77.1853 12.144 76.3213 12.144ZM76.3213 10.192C76.7266 10.192 77.1053 10.096 77.4573 9.904C77.8199 9.70133 78.1079 9.40267 78.3213 9.008C78.5346 8.61333 78.6413 8.13333 78.6413 7.568C78.6413 6.72533 78.4173 6.08 77.9693 5.632C77.5319 5.17333 76.9933 4.944 76.3533 4.944C75.7133 4.944 75.1746 5.17333 74.7373 5.632C74.3106 6.08 74.0973 6.72533 74.0973 7.568C74.0973 8.41067 74.3053 9.06133 74.7213 9.52C75.1479 9.968 75.6813 10.192 76.3213 10.192ZM85.9804 12.144C85.255 12.144 84.6044 12.016 84.0284 11.76C83.4524 11.4933 82.9937 11.136 82.6524 10.688C82.3217 10.24 82.1404 9.744 82.1084 9.2H84.3644C84.407 9.54133 84.5724 9.824 84.8604 10.048C85.159 10.272 85.527 10.384 85.9644 10.384C86.391 10.384 86.7217 10.2987 86.9564 10.128C87.2017 9.95733 87.3244 9.73867 87.3244 9.472C87.3244 9.184 87.175 8.97067 86.8764 8.832C86.5884 8.68267 86.1244 8.52267 85.4844 8.352C84.823 8.192 84.279 8.02667 83.8524 7.856C83.4364 7.68533 83.0737 7.424 82.7644 7.072C82.4657 6.72 82.3164 6.24533 82.3164 5.648C82.3164 5.15733 82.455 4.70933 82.7324 4.304C83.0204 3.89867 83.4257 3.57867 83.9484 3.344C84.4817 3.10933 85.1057 2.992 85.8204 2.992C86.8764 2.992 87.719 3.25867 88.3484 3.792C88.9777 4.31467 89.3244 5.024 89.3884 5.92H87.2444C87.2124 5.568 87.063 5.29067 86.7964 5.088C86.5404 4.87467 86.1937 4.768 85.7564 4.768C85.351 4.768 85.0364 4.84267 84.8124 4.992C84.599 5.14133 84.4924 5.34933 84.4924 5.616C84.4924 5.91467 84.6417 6.144 84.9404 6.304C85.239 6.45333 85.703 6.608 86.3324 6.768C86.9724 6.928 87.5004 7.09333 87.9164 7.264C88.3324 7.43467 88.6897 7.70133 88.9884 8.064C89.2977 8.416 89.4577 8.88533 89.4684 9.472C89.4684 9.984 89.3244 10.4427 89.0364 10.848C88.759 11.2533 88.3537 11.5733 87.8204 11.808C87.2977 12.032 86.6844 12.144 85.9804 12.144ZM12.112 27.008C13.2 27.008 14.0747 27.344 14.736 28.016C15.408 28.6773 15.744 29.6053 15.744 30.8V36H13.504V31.104C13.504 30.4107 13.328 29.8827 12.976 29.52C12.624 29.1467 12.144 28.96 11.536 28.96C10.928 28.96 10.4427 29.1467 10.08 29.52C9.728 29.8827 9.552 30.4107 9.552 31.104V36H7.312V31.104C7.312 30.4107 7.136 29.8827 6.784 29.52C6.432 29.1467 5.952 28.96 5.344 28.96C4.72533 28.96 4.23467 29.1467 3.872 29.52C3.52 29.8827 3.344 30.4107 3.344 31.104V36H1.104V27.136H3.344V28.208C3.632 27.8347 4 27.5413 4.448 27.328C4.90667 27.1147 5.408 27.008 5.952 27.008C6.64533 27.008 7.264 27.1573 7.808 27.456C8.352 27.744 8.77333 28.16 9.072 28.704C9.36 28.192 9.776 27.7813 10.32 27.472C10.8747 27.1627 11.472 27.008 12.112 27.008ZM26.1096 31.376C26.1096 31.696 26.0883 31.984 26.0456 32.24H19.5656C19.619 32.88 19.843 33.3813 20.2376 33.744C20.6323 34.1067 21.1176 34.288 21.6936 34.288C22.5256 34.288 23.1176 33.9307 23.4696 33.216H25.8856C25.6296 34.0693 25.139 34.7733 24.4136 35.328C23.6883 35.872 22.7976 36.144 21.7416 36.144C20.8883 36.144 20.1203 35.9573 19.4376 35.584C18.7656 35.2 18.2376 34.6613 17.8536 33.968C17.4803 33.2747 17.2936 32.4747 17.2936 31.568C17.2936 30.6507 17.4803 29.8453 17.8536 29.152C18.227 28.4587 18.7496 27.9253 19.4216 27.552C20.0936 27.1787 20.867 26.992 21.7416 26.992C22.5843 26.992 23.3363 27.1733 23.9976 27.536C24.6696 27.8987 25.187 28.416 25.5496 29.088C25.923 29.7493 26.1096 30.512 26.1096 31.376ZM23.7896 30.736C23.779 30.16 23.571 29.7013 23.1656 29.36C22.7603 29.008 22.2643 28.832 21.6776 28.832C21.123 28.832 20.6536 29.0027 20.2696 29.344C19.8963 29.6747 19.667 30.1387 19.5816 30.736H23.7896ZM36.1126 27.136V36H33.8566V34.88C33.5686 35.264 33.19 35.568 32.7206 35.792C32.262 36.0053 31.7606 36.112 31.2166 36.112C30.5233 36.112 29.91 35.968 29.3766 35.68C28.8433 35.3813 28.422 34.9493 28.1126 34.384C27.814 33.808 27.6646 33.1253 27.6646 32.336V27.136H29.9046V32.016C29.9046 32.72 30.0806 33.264 30.4326 33.648C30.7846 34.0213 31.2646 34.208 31.8726 34.208C32.4913 34.208 32.9766 34.0213 33.3286 33.648C33.6806 33.264 33.8566 32.72 33.8566 32.016V27.136H36.1126ZM41.7148 36.144C40.9894 36.144 40.3388 36.016 39.7628 35.76C39.1868 35.4933 38.7281 35.136 38.3868 34.688C38.0561 34.24 37.8748 33.744 37.8428 33.2H40.0988C40.1414 33.5413 40.3068 33.824 40.5948 34.048C40.8934 34.272 41.2614 34.384 41.6988 34.384C42.1254 34.384 42.4561 34.2987 42.6908 34.128C42.9361 33.9573 43.0588 33.7387 43.0588 33.472C43.0588 33.184 42.9094 32.9707 42.6108 32.832C42.3228 32.6827 41.8588 32.5227 41.2188 32.352C40.5574 32.192 40.0134 32.0267 39.5868 31.856C39.1708 31.6853 38.8081 31.424 38.4988 31.072C38.2001 30.72 38.0508 30.2453 38.0508 29.648C38.0508 29.1573 38.1894 28.7093 38.4668 28.304C38.7548 27.8987 39.1601 27.5787 39.6828 27.344C40.2161 27.1093 40.8401 26.992 41.5548 26.992C42.6108 26.992 43.4534 27.2587 44.0828 27.792C44.7121 28.3147 45.0588 29.024 45.1228 29.92H42.9788C42.9468 29.568 42.7974 29.2907 42.5308 29.088C42.2748 28.8747 41.9281 28.768 41.4908 28.768C41.0854 28.768 40.7708 28.8427 40.5468 28.992C40.3334 29.1413 40.2268 29.3493 40.2268 29.616C40.2268 29.9147 40.3761 30.144 40.6748 30.304C40.9734 30.4533 41.4374 30.608 42.0668 30.768C42.7068 30.928 43.2348 31.0933 43.6508 31.264C44.0668 31.4347 44.4241 31.7013 44.7228 32.064C45.0321 32.416 45.1921 32.8853 45.2028 33.472C45.2028 33.984 45.0588 34.4427 44.7708 34.848C44.4934 35.2533 44.0881 35.5733 43.5548 35.808C43.0321 36.032 42.4188 36.144 41.7148 36.144ZM50.278 31.568C50.278 30.6507 50.4647 29.8507 50.838 29.168C51.2113 28.4747 51.7287 27.9413 52.39 27.568C53.0513 27.184 53.8087 26.992 54.662 26.992C55.7607 26.992 56.6673 27.2693 57.382 27.824C58.1073 28.368 58.5927 29.136 58.838 30.128H56.422C56.294 29.744 56.0753 29.4453 55.766 29.232C55.4673 29.008 55.094 28.896 54.646 28.896C54.006 28.896 53.4993 29.1307 53.126 29.6C52.7527 30.0587 52.566 30.7147 52.566 31.568C52.566 32.4107 52.7527 33.0667 53.126 33.536C53.4993 33.9947 54.006 34.224 54.646 34.224C55.5527 34.224 56.1447 33.8187 56.422 33.008H58.838C58.5927 33.968 58.1073 34.7307 57.382 35.296C56.6567 35.8613 55.75 36.144 54.662 36.144C53.8087 36.144 53.0513 35.9573 52.39 35.584C51.7287 35.2 51.2113 34.6667 50.838 33.984C50.4647 33.2907 50.278 32.4853 50.278 31.568ZM62.719 24.16V36H60.479V24.16H62.719ZM66.0681 26.08C65.6735 26.08 65.3428 25.9573 65.0761 25.712C64.8201 25.456 64.6921 25.1413 64.6921 24.768C64.6921 24.3947 64.8201 24.0853 65.0761 23.84C65.3428 23.584 65.6735 23.456 66.0681 23.456C66.4628 23.456 66.7881 23.584 67.0441 23.84C67.3108 24.0853 67.4441 24.3947 67.4441 24.768C67.4441 25.1413 67.3108 25.456 67.0441 25.712C66.7881 25.9573 66.4628 26.08 66.0681 26.08ZM67.1721 27.136V36H64.9321V27.136H67.1721ZM77.6253 31.376C77.6253 31.696 77.6039 31.984 77.5613 32.24H71.0813C71.1346 32.88 71.3586 33.3813 71.7533 33.744C72.1479 34.1067 72.6333 34.288 73.2093 34.288C74.0413 34.288 74.6333 33.9307 74.9853 33.216H77.4013C77.1453 34.0693 76.6546 34.7733 75.9293 35.328C75.2039 35.872 74.3133 36.144 73.2573 36.144C72.4039 36.144 71.6359 35.9573 70.9533 35.584C70.2813 35.2 69.7533 34.6613 69.3693 33.968C68.9959 33.2747 68.8092 32.4747 68.8092 31.568C68.8092 30.6507 68.9959 29.8453 69.3693 29.152C69.7426 28.4587 70.2653 27.9253 70.9373 27.552C71.6093 27.1787 72.3826 26.992 73.2573 26.992C74.0999 26.992 74.8519 27.1733 75.5133 27.536C76.1853 27.8987 76.7026 28.416 77.0653 29.088C77.4386 29.7493 77.6253 30.512 77.6253 31.376ZM75.3053 30.736C75.2946 30.16 75.0866 29.7013 74.6813 29.36C74.2759 29.008 73.7799 28.832 73.1933 28.832C72.6386 28.832 72.1693 29.0027 71.7853 29.344C71.4119 29.6747 71.1826 30.1387 71.0973 30.736H75.3053ZM84.1723 27.008C85.2283 27.008 86.0816 27.344 86.7323 28.016C87.3829 28.6773 87.7083 29.6053 87.7083 30.8V36H85.4683V31.104C85.4683 30.4 85.2923 29.8613 84.9403 29.488C84.5883 29.104 84.1083 28.912 83.5003 28.912C82.8816 28.912 82.3909 29.104 82.0283 29.488C81.6763 29.8613 81.5003 30.4 81.5003 31.104V36H79.2603V27.136H81.5003V28.24C81.7989 27.856 82.1776 27.5573 82.6363 27.344C83.1056 27.12 83.6176 27.008 84.1723 27.008ZM92.4464 28.976V33.264C92.4464 33.5627 92.5157 33.7813 92.6544 33.92C92.8037 34.048 93.049 34.112 93.3904 34.112H94.4304V36H93.0224C91.1344 36 90.1904 35.0827 90.1904 33.248V28.976H89.1344V27.136H90.1904V24.944H92.4464V27.136H94.4304V28.976H92.4464ZM104.282 31.376C104.282 31.696 104.26 31.984 104.218 32.24H97.7375C97.7908 32.88 98.0148 33.3813 98.4095 33.744C98.8042 34.1067 99.2895 34.288 99.8655 34.288C100.698 34.288 101.29 33.9307 101.642 33.216H104.058C103.802 34.0693 103.311 34.7733 102.586 35.328C101.86 35.872 100.97 36.144 99.9135 36.144C99.0602 36.144 98.2922 35.9573 97.6095 35.584C96.9375 35.2 96.4095 34.6613 96.0255 33.968C95.6522 33.2747 95.4655 32.4747 95.4655 31.568C95.4655 30.6507 95.6522 29.8453 96.0255 29.152C96.3988 28.4587 96.9215 27.9253 97.5935 27.552C98.2655 27.1787 99.0388 26.992 99.9135 26.992C100.756 26.992 101.508 27.1733 102.17 27.536C102.842 27.8987 103.359 28.416 103.722 29.088C104.095 29.7493 104.282 30.512 104.282 31.376ZM101.962 30.736C101.951 30.16 101.743 29.7013 101.338 29.36C100.932 29.008 100.436 28.832 99.8495 28.832C99.2948 28.832 98.8255 29.0027 98.4415 29.344C98.0682 29.6747 97.8388 30.1387 97.7535 30.736H101.962ZM109.309 36.144C108.583 36.144 107.933 36.016 107.357 35.76C106.781 35.4933 106.322 35.136 105.981 34.688C105.65 34.24 105.469 33.744 105.437 33.2H107.693C107.735 33.5413 107.901 33.824 108.189 34.048C108.487 34.272 108.855 34.384 109.293 34.384C109.719 34.384 110.05 34.2987 110.285 34.128C110.53 33.9573 110.653 33.7387 110.653 33.472C110.653 33.184 110.503 32.9707 110.205 32.832C109.917 32.6827 109.453 32.5227 108.812 32.352C108.151 32.192 107.607 32.0267 107.181 31.856C106.765 31.6853 106.402 31.424 106.093 31.072C105.794 30.72 105.645 30.2453 105.645 29.648C105.645 29.1573 105.783 28.7093 106.061 28.304C106.349 27.8987 106.754 27.5787 107.277 27.344C107.81 27.1093 108.434 26.992 109.149 26.992C110.205 26.992 111.047 27.2587 111.677 27.792C112.306 28.3147 112.653 29.024 112.717 29.92H110.573C110.541 29.568 110.391 29.2907 110.125 29.088C109.869 28.8747 109.522 28.768 109.085 28.768C108.679 28.768 108.365 28.8427 108.141 28.992C107.927 29.1413 107.821 29.3493 107.821 29.616C107.821 29.9147 107.97 30.144 108.269 30.304C108.567 30.4533 109.031 30.608 109.661 30.768C110.301 30.928 110.829 31.0933 111.245 31.264C111.661 31.4347 112.018 31.7013 112.317 32.064C112.626 32.416 112.786 32.8853 112.797 33.472C112.797 33.984 112.653 34.4427 112.365 34.848C112.087 35.2533 111.682 35.5733 111.149 35.808C110.626 36.032 110.013 36.144 109.309 36.144Z" fill="#070F18"/>
</svg>
